#!OML:ASF F:\VICON\USERDATA\INSTALL\rory3\rory3.ASF
:FULLY-SPECIFIED
:DEGREES
66
root -0.8079647653226012 18.548523983229074 32.70762958580761 4.799454533060654 1.080037214502767 -3.253399144399245
lfemur -30.609106674615795 1.090471171403088 -18.328411224131493
ltibia 43.32066803901864
lfoot 4.1925552462023585 -12.999859394206
ltoes -14.622270767359256
rfemur 5.9587418080913785 10.172986510771777 34.72985436190097
rtibia 31.67385088705751
rfoot 24.557349187408537 -4.671332003881657
rtoes 18.817963730395046
lowerback 9.821232549347933 1.477990366613736 3.9438349723278345
upperback -2.306418712696751 2.6154002461860153 0.946295062101929
thorax -7.007860347643534 1.0589476622329215 -1.8113749121821514
lowerneck -16.912728105180296 -3.6158062214685947 -3.1300658702216353
upperneck 18.24257414080743 -4.211838846270228 1.7810795932960506
head 8.843961560815039 -1.9660195338367499 0.6607875249422928
lclavicle -6.472310604454489e-16 -4.8603224281401535e-15
lhumerus -68.93321588947626 -7.723537946175909 94.79870481440575
lradius 109.86704649114759
lwrist 30.75974869597252
lhand -31.977859530881194 -0.9158431246596397
lfingers 7.125019999999998
lthumb -5.012208496764618 28.784232073268964
rclavicle -6.468536903251146e-16 -4.860977724000153e-15
rhumerus -49.349528385556084 13.361383875316488 -99.59433776454478
rradius 124.56316190784007
rwrist -12.064558713170266
rhand -17.701166202795054 35.129365007686104
rfingers 7.125019999999998
rthumb 8.026699983794712 7.375719953532208
67
root -0.8387660045937897 18.492620191969518 33.91387834736286 4.2170316107926755 0.9872969826658942 -3.18735341663722
lfemur -28.731784177409736 1.5100464833102465 -19.098430366256647
ltibia 36.25694131538175
lfoot 5.676408320320378 -13.383482617873433
ltoes -14.466129860239393
rfemur 5.09953831550181 9.628301451064951 34.319779035712
rtibia 35.34992344858582
rfoot 22.653726150128772 -6.1183922629957035
rtoes 20.07027299927863
lowerback 10.227748575311868 1.5217326700320806 3.837305049050891
upperback -2.0741000999729957 2.7441290381533814 0.9349826566718596
thorax -7.0489317528821 1.1337120784342463 -1.9038949208777503
lowerneck -16.981006918549028 -3.6071068859802846 -3.1402867493870565
upperneck 17.706705589891104 -4.199108952164616 1.7839577509074878
head 8.701330900554625 -1.9671491825880283 0.648155753157942
lclavicle -6.50300289567652e-16 -4.862502264910166e-15
lhumerus -68.5313629191398 -7.60355623124469 94.72524428052326
lradius 111.1745404208695
lwrist 28.84171580606905
lhand -32.79339360867891 -1.1576538132281033
lfingers 7.125019999999998
lthumb -5.295841651273875 28.821184172479438
rclavicle -6.46610246717813e-16 -4.86020931509054e-15
rhumerus -49.13901239466139 13.138703384403804 -99.51983105530043
rradius 124.61659007554351
rwrist -11.435670738935382
rhand -17.96221375665274 34.5573415900709
rfingers 7.125019999999998
rthumb 8.077582228606323 6.553866732328194
68
root -0.8833912554832578 18.385602749919073 35.060036717118955 3.7899446514443276 0.9840414615877101 -3.5947229913110377
lfemur -26.79229245801097 1.934627067111919 -19.31407812614301
ltibia 31.716148879889335
lfoot 6.721776531312251 -12.49034358130971
ltoes -15.272146688532118
rfemur 3.9968703890428188 8.955905020873669 34.236617163900135
rtibia 39.3569173927196
rfoot 21.293130081348767 -7.7196716102123615
rtoes 19.31650148564628
lowerback 10.514543719326655 1.529409216820374 4.083196077245438
upperback -1.9557685834704284 2.843682216709967 1.0359020475126748
thorax -7.164030435946586 1.1919721546432243 -2.0348379203499225
lowerneck -17.00290144681475 -3.5771343348591293 -3.2275755553191106
upperneck 17.22824455287094 -4.194525620984276 1.925306744610034
head 8.620222302398613 -1.9310271876506075 0.7258940345071104
lclavicle -6.517513627569739e-16 -4.863485238413285e-15
lhumerus -67.31066217927172 -7.599371254692019 94.97156231093025
lradius 111.96321898966285
lwrist 27.00896094652088
lhand -32.040003243664465 -1.3246028699968744
lfingers 7.125019999999998
lthumb -4.630601229190907 28.714979051336496
rclavicle -6.462909323581097e-16 -4.860210594134781e-15
rhumerus -48.675708964098106 12.883019838727732 -99.12545311311189
rradius 124.28425161506752
rwrist -10.408659007916967
rhand -18.313812617212953 34.18808319725672
rfingers 7.125019999999998
rthumb 7.691539397277964 5.921627155078314
69
root -0.9353957988485252 18.221583987161303 35.91801734100822 2.8855107412404664 1.2169674711385385 -3.2397653243392845
lfemur -24.854881661412307 2.167454662296237 -20.461140643839958
ltibia 29.04891767935996
lfoot 7.459700101602187 -12.40479704317642
ltoes -17.90489188735119
rfemur 2.411839998851619 7.5528141911460205 32.983945269240984
rtibia 44.58933674254668
rfoot 19.962499247042576 -9.131035871113998
rtoes 17.253591678508382
lowerback 11.402874074297067 1.497078798317128 3.5247031641019357
upperback -1.611373438482013 2.7427678910481577 0.984173173310213
thorax -7.440199550264252 1.1555746647743947 -1.8877374357804997
lowerneck -16.827243764899976 -3.49311348231585 -3.2814911471259407
upperneck 16.50977214112933 -4.07534348341194 2.0088676333057895
head 8.359769216072886 -1.8889184929955043 0.8008412247195044
lclavicle -6.531818430195125e-16 -4.864546961783016e-15
lhumerus -65.87532585459981 -7.968687665822773 95.39936565514049
lradius 112.19211702684382
lwrist 27.923783555376247
lhand -32.326494704773935 -0.5551635127531814
lfingers 7.125019999999998
lthumb -4.9749418076284 28.470268623013023
rclavicle -6.509789016759876e-16 -4.864065561880229e-15
rhumerus -48.263285306880086 12.677743057143497 -99.10412223601932
rradius 123.90126857123872
rwrist -10.593635885915578
rhand -18.56422251874966 34.355594568039905
rfingers 7.125019999999998
rthumb 7.764360609608317 6.130630893155985
70
root -1.0243430906491744 17.984389486414443 36.982607416175554 1.8777494395304457 1.8006143841220976 -3.614296654294599
lfemur -23.0828997894034 2.524236809635651 -20.501331710277444
ltibia 28.302591463262225
lfoot 7.4904432499811495 -13.8435598802392
ltoes -15.776908447071904
rfemur 0.7017282336046016 5.941385200737054 32.60154305254804
rtibia 50.53989288991568
rfoot 19.18915436275402 -9.984870971192418
rtoes 14.324714579218655
lowerback 12.465059888066463 1.3891377693733185 3.498818317592033
upperback -1.3336698258637238 2.64021135398181 1.221760572471513
thorax -7.808129347145306 1.1212715323861056 -1.685947018141356
lowerneck -17.00149499327276 -3.517002995918902 -3.3715037203897538
upperneck 16.337145720600446 -4.103667709564135 2.1186262763916517
head 8.42065661577454 -1.8802064592659857 0.8260722561363686
lclavicle -6.5424558825536e-16 -4.865291157490379e-15
lhumerus -63.933141159771225 -8.757756508164597 96.08384818643209
lradius 111.83225180474146
lwrist 26.227154943596407
lhand -33.21858223958076 0.4748124692606891
lfingers 7.125019999999998
lthumb -6.079692738574206 29.851771358735665
rclavicle -6.469088440728694e-16 -4.8610985691703916e-15
rhumerus -48.190543574078845 11.997647904438686 -99.20302957109384
rradius 123.87912131111996
rwrist -10.548442591625632
rhand -18.46556308765261 34.965922592121714
rfingers 7.125019999999998
rthumb 7.923693779410794 6.313127076221589
